<svg id="outline" enable-background="new 0 0 512 512" height="512" viewBox="0 0 512 512" width="512" xmlns="http://www.w3.org/2000/svg"><g><path d="m192 144c0-35.2900391-28.7099609-64-64-64s-64 28.7099609-64 64 28.7099609 64 64 64 64-28.7099609 64-64zm-92.1755371 38.8259277c5.4255371-2.4921875 10.4528809-5.75 14.9562988-9.6958008 4.0327149 1.8374024 8.5063477 2.8698731 13.2192383 2.8698731 3.4614258 0 6.7929688-.5595703 9.9179688-1.5810547 1.8286133 5.0766602 2.7575684 10.434082 2.7307129 15.8774414-4.0327149 1.1032715-8.270752 1.7036133-12.6486817 1.7036133-10.5214844 0-20.2563477-3.4116211-28.1755371-9.1740723zm28.1755371-54.8259277c7.1645508 0 13.2441406 4.7338867 15.2758789 11.237793l.005127.015625c.467041 1.5002441.7189941 3.0944824.7189941 4.746582 0 8.8222656-7.1777344 16-16 16s-16-7.1777344-16-16c0-1.6520996.2519531-3.2463379.7189941-4.746582l.005127-.015625c2.0317383-6.5039063 8.1113281-11.237793 15.2758789-11.237793zm28.2192383 54.7946777c-.6936035-5.9328613-2.2392578-11.7231445-4.6020508-17.2270508 5.2033691-5.6931152 8.3828125-13.2656249 8.3828125-21.5676269 0-.0112305-.0009766-.0219727-.0009766-.0332031 5.3925781-.1699219 10.7749023.6025391 15.9431152 2.310791-.7038573 14.9921875-8.3198241 28.1999512-19.7229003 36.5170898zm17.420166-53.6401367c-5.8640137-1.1774902-11.855957-1.498291-17.8278809-.951416-3.9196777-6.8737793-10.3085938-12.1606445-17.9550781-14.6428223 1.5046387-5.1813965 3.9020996-10.0612793 7.1230469-14.4484863 13.5314941 5.1354981 24.1518555 16.2177734 28.6599121 30.0427246zm-45.6508789-33.1542969c-2.9299316 5.2089844-5.0864258 10.8039551-6.4128418 16.6481934-7.9611816 1.6289063-14.8496094 6.2280273-19.4672852 12.5793457-4.4616699-3.0290527-8.361084-6.8132324-11.5388184-11.2280273 8.8022462-10.9602051 22.3007813-17.9958496 37.4189454-17.9995118zm-45.6374512 33.1828614c4.0490723 4.3959961 8.7045898 8.175293 13.8535156 11.2424316-.1311035 1.1743164-.2045898 2.3657227-.2045898 3.5744629 0 7.0317383 2.2854004 13.5371094 6.1450195 18.8237305-4.2612305 3.3085938-9.0673828 5.8483887-14.25 7.5063477-4.9838867-7.5656739-7.8950195-16.6123048-7.8950195-26.3300782 0-5.1699219.831543-10.1472168 2.3510742-14.8168945z"/><path d="m480 312c0-4.4179688-3.5820313-8-8-8h-16c-19.3166504 0-35.4785156 13.7646484-39.1950684 32h-.8049316c-22.0556641 0-40 17.9443359-40 40v80c0 13.2333984-10.7666016 24-24 24s-24-10.7666016-24-24v-168c0-22.0556641-17.9443359-40-40-40s-40 17.9443359-40 40v168c0 13.2333984-10.7666016 24-24 24h-64c-13.2333984 0-24-10.7666016-24-24v-32h8c4.4179688 0 8-3.5820313 8-8v-24h23.0292969c13.7685547 0 24.9707031-11.2021484 24.9707031-24.9707031 0-6.6699219-2.5976563-12.9404297-7.3134766-17.6572266-8.1411133-8.140625-13.5085449-18.3125-15.6425781-29.3720703h14.9560547c3.9111328 0 7.2480469-2.8271484 7.8916016-6.6845703l8-48c.3857422-2.3203125-.2675781-4.6923828-1.7871094-6.4863281-1.5205078-1.7949219-3.7529297-2.8291016-6.1044922-2.8291016h-24v-10.8212891c18.2756348-8.7050781 33.8369141-22.2165527 45.0378418-38.8930664l86.498291-54.0620117c24.9941406-15.6210938 53.7275391-23.9824219 83.1806641-24.21875l46.7529297 15.5849609c2.4423828.8125 5.1220703.4033203 7.2080078-1.0996094 2.0859375-1.5039062 3.3222656-3.9189452 3.3222656-6.4902343v-112c0-2.5712891-1.2363281-4.9863281-3.3222656-6.4902344-2.0849609-1.5029297-4.765625-1.9121094-7.2080078-1.0996094l-46.7675782 15.5898438h-262.7021484c-61.7568359 0-112 50.2431641-112 112 0 47.6699219 29.9399414 88.4726563 72 104.6098633v118.4194336c0 10.6074219 6.6513672 19.6850586 16 23.2973633v25.6733398c0 4.4179688 3.5820313 8 8 8h8v32c0 22.0556641 17.9443359 40 40 40h64c22.0556641 0 40-17.9443359 40-40v-168c0-13.2333984 10.7666016-24 24-24s24 10.7666016 24 24v168c0 22.0556641 17.9443359 40 40 40s40-17.9443359 40-40v-80c0-13.2333984 10.7666016-24 24-24h.8049316c3.7165527 18.2353516 19.878418 32 39.1950684 32h16c4.4179688 0 8-3.5820313 8-8v-8h16v-16h-16v-16h16v-16h-16zm-344 96h-16v-16h16zm54.5566406-136-5.3339844 32h-9.2226562v-32zm241.4433594-147.0996094-32-10.6669922v-68.4667968l32-10.6669922zm-48-76.9003906v64.2045898c-30.0942383 1.369873-59.309082 10.4299316-84.9443359 26.4506836l-64.6914063 40.4326172c3.6520996-11.0424804 5.6357422-22.8371582 5.6357422-35.0878906 0-40.6943359-21.8186035-76.385498-54.3693848-96zm-352 96c0-52.9345703 43.0654297-96 96-96s96 43.0654297 96 96-43.0654297 96-96 96-96-43.0654297-96-96zm96 112c11.1162109 0 21.855957-1.6357422 32-4.6655273v57.753418c0 19.4912109 7.5898438 37.8164063 21.3720703 51.5986328 1.694336 1.6943359 2.6279297 3.946289 2.6279297 6.3427734 0 4.946289-4.0244141 8.9707031-8.9707031 8.9707031h-62.0585938c-4.946289 0-8.9707031-4.0244141-8.9707031-8.9707031v-113.626709c7.7348633 1.6955566 15.7636719 2.5974121 24 2.5974121zm336 112h-8c-13.2333984 0-24-10.7666016-24-24s10.7666016-24 24-24h8z"/><path d="m464 72h32v16h-32z"/><path d="m461.578 24h28.844v16h-28.844z" transform="matrix(.832 -.555 .555 .832 62.194 269.412)"/><path d="m468 113.578h16v28.844h-16z" transform="matrix(.555 -.832 .832 .555 105.46 453.054)"/></g></svg>